<svg xmlns="http://www.w3.org/2000/svg" xmlns:xlink="http://www.w3.org/1999/xlink" viewBox="0 0 1024 1024"><defs><radialGradient id="radial-gradient" cx="511.5" cy="511.5" r="512" gradientTransform="translate(-442.47 -118.19) rotate(-30) scale(1 2)" gradientUnits="userSpaceOnUse"><stop offset="0" stop-color="#fff"/><stop offset="0.07" stop-color="#ebebeb"/><stop offset="0.32" stop-color="#aeaeae"/><stop offset="0.54" stop-color="#7e7e7e"/><stop offset="0.74" stop-color="#5b5b5b"/><stop offset="0.9" stop-color="#464646"/><stop offset="1" stop-color="#3e3e3e"/></radialGradient></defs><title>down</title><g id="Layer_1" data-name="Layer 1"><rect width="1024" height="1024" fill="url(#radial-gradient)"/></g><g id="Layer_2" data-name="Layer 2"><image width="934" height="934" transform="translate(56.5 22.5)" xlink:href="down1.png"/><g opacity="0.8"><ellipse cx="523.56" cy="480.58" rx="389.88" ry="390.23" transform="translate(-186.39 499.28) rotate(-44.02)" fill="#363636"/><image width="854" height="854" transform="translate(97.5 54.5)" xlink:href="down2.png"/></g></g><g id="Layer_3" data-name="Layer 3"><path d="M708.93,355c1.26,3.79,2.4,7.63,4.72,11,.2,1.23,0,2.58,1.07,3.56l2.81,9.52c.25,1.29-.09,2.75,1.13,3.75l2.12,12.44.87,3.88,1,13.4.29,4.86a84.78,84.78,0,0,0-.12,14.3,1.37,1.37,0,0,0-.14.88l-19.19.2-.41-12.5a4.94,4.94,0,0,0-.67-3.88c.51-4.85-.45-9.57-1.18-14.31l-.82-3a34.72,34.72,0,0,0-2.63-11.6,6.83,6.83,0,0,0-1.25-3.75,36.51,36.51,0,0,0-3.79-10.53l-1.63-2.93a28.31,28.31,0,0,0-5-9.56,10.28,10.28,0,0,0-2.69-4.1c-1.16-2.85-3.24-5-5.14-7.38l-3.6-4a33.2,33.2,0,0,0-6.74-6.74L665,335.55l-2.09-1.21c1-5.05-1.83-8.6-5-11.8-12.84-12.92-28.85-20.86-45.22-28-22.54-9.89-45.93-16.74-70.52-19.6a153.87,153.87,0,0,0-43.65.77,260.44,260.44,0,0,0-85.61,30.15c-10,5.69-19.52,12.11-26.27,21.79-1.49,2.14-2.86,4.36-.84,7a7.13,7.13,0,0,0-2.15.89C370.5,347.3,360,361,354.11,377.93A17.55,17.55,0,0,0,352,384.6c-2.74,6.12-3.9,12.63-4.66,19.24l-.78,5.79c-.72,5.07-1.56,10.13-.9,15.27l-.07,4.88-.33,2.92-19.82,0-.31-4q.13-7.67.26-15.35c1.15-1.5.65-3.18.53-4.82l2.11-16.26.92-5.79,5.9-20.14a26,26,0,0,0,2.86-7.67,211.4,211.4,0,0,1,21.48-35.43,255.79,255.79,0,0,1,23.67-23.73,256.6,256.6,0,0,1,38.37-24.21,36.38,36.38,0,0,0,8.55-3.72l22.09-8a17.22,17.22,0,0,0,6.72-1.75c14.57-3.34,29.21-6.21,44.15-7.24a323.46,323.46,0,0,1,42.47,0c14.49.9,28.62,4,42.82,6.65l4,1.35c3.53.93,6.84,2.65,10.54,3a9.57,9.57,0,0,0,4.81,1.85l9.48,3.33,2.48.86c3.3,2.57,7.25,3.81,11,5.37l2.69,1.38a40.86,40.86,0,0,0,8.62,4.66l4.07,2.63c2.79,1.82,5.31,4.06,8.52,5.19l3,2.49,6.61,4.94,3.79,3c2.44,2.4,4.51,5.24,7.74,6.73l1.78,1.79,6.94,7.59,2.74,3.06,5.88,7.51,1.71,2a41.26,41.26,0,0,0,6.7,10c.17.93.26,1.89,1.22,2.42a42.41,42.41,0,0,0,5.52,10C708.07,353.34,708.05,354.33,708.93,355Z" transform="translate(0.5 0.5)" fill="#aaa"/><path d="M349.28,632.21l-3.76-.16q0-89.64-.07-179.28h0l12.47.78,4.5.81,10.82,2.38,3.58,1.34,9.88,4.32,2.92,1.82,6.8,5.76,3.56,4.26,4,8.27c0,1-.1,2.09.76,2.9l.37,14.33.06,4.83L405.07,519l.06,4.83-.06,14.36.06,4.83-.06,14.36.06,4.83-.06,14.36.06,4.83-.06,14.36-.95,5.78c-4,12.69-13.81,19.49-25.21,24.65l-6.6,2.2-17.24,3.3Z" transform="translate(0.5 0.5)" fill="#7a7b7b"/><path d="M643.65,532.39l.06-14.36-.06-4.83.06-14.36-.06-4.83a39.08,39.08,0,0,1,4.21-18.23,59.22,59.22,0,0,1,12.24-12.16c7.31-4,15.16-6.55,23.09-8.88a11.6,11.6,0,0,0,5.74-1l14.4-1h0l-.06,179.29-3.76.23c-1.61-.27-3.16-1-4.85-.62l-11.42-1.55c-1.11-1-2.5-.79-3.82-.93l-11.55-3.84-2.93-1.56-7.32-4.24L653.39,616l-5.56-6.91-1.5-3c-1.1-3.73-2.44-7.4-2.63-11.34l-.06-4.83.06-14.36-.06-4.83.06-14.36-.06-4.83.06-14.36Z" transform="translate(0.5 0.5)" fill="#7a7b7b"/><path d="M484.37,710.86l.06-14.36.19-4.78,0,0,4.78-.19,14.36-.06,4.83.06,14.36-.06,4.83.06,14.36-.06,4.83.06,14.36-.06,2.81.23.22,13.38c.21,2.09-1,4.37.79,6.25l15.37-.57,4.82,0c5.45-.39,11-.3,16.3-1.71l5.55-.37c5.53-.7,11.12-1.06,16.5-2.72,2.28.31,4.33-.74,6.5-1.08,6.24-1.19,12.47-2.4,18.44-4.66l7.54-2.14c8-2.41,15.89-5.06,23.2-9.17,3.45-.89,6.46-2.69,9.51-4.43a109.12,109.12,0,0,0,20.17-12.72c12.56-9.86,23.32-21.21,28.84-36.64a13.88,13.88,0,0,0,2.11-6.63c2.14-5.59,2.55-11.44,2.52-17.35l-.15-13,.34-6.08c9.85.08,16.3-4.8,20-13.7-.24,22.91,2.42,46.06-5.72,68.31a39,39,0,0,0-3.77,8.64c-10.65,19.42-26.53,33.59-45.13,45l-10.48,5.37-24,10.11L666,718l-19.29,5.34c-2-.24-3.89.45-5.77,1-23.51,4.55-47.25,7.55-71.18,7.05-27.1-.56-54.18-.15-81.27-.36-3.07,0-4.23-.72-4-3.94.26-3.8,0-7.65-.06-11.47Z" transform="translate(0.5 0.5)" fill="#7b7c7b"/><path d="M345.45,452.77q0,89.64.07,179.28c-3.29.62-6.4-1-9.67-.76a6.86,6.86,0,0,0-3.77-1.16l-9.58-4a5.06,5.06,0,0,0-2.78-1.92l-6.87-6.47-1.71-2-4.2-9.52-1.56-4.88-.28-9.1q0-49.85,0-99.7c-.31-14.42,5.08-25.94,17.63-33.47,2.92-1.75,2.37-4.09,2.7-6.47Z" transform="translate(0.5 0.5)" fill="#aaa"/><path d="M742.73,592l-.34,6.08a87.32,87.32,0,0,1-3.45,14,44.5,44.5,0,0,1-15.47,15.31l-7.66,2.9c-4.19.5-8.26,1.92-12.54,1.79q0-89.65.06-179.29l19.95-.09.2,2c-.47,5.44,4.89,5.31,7.47,7.84l2.94,2.94,5,7.45a6.74,6.74,0,0,0,1.81,3.87l2.12,11.47q0,2.17,0,4.34Q742.74,542.29,742.73,592Z" transform="translate(0.5 0.5)" fill="#aaa"/><path d="M305.11,492.63q0,49.85,0,99.7l-5.69-.5-3.88-1.59c-7.56-4-10.72-10.21-10.61-18.75.24-19,.08-38,.07-56.93C285,500.38,290.87,494,305.11,492.63Z" transform="translate(0.5 0.5)" fill="#18b086"/><path d="M742.73,592q0-49.7,0-99.39l3.77.27L755,496a4.67,4.67,0,0,0,2.7,2c4,4.92,5.25,10.52,5.18,16.85-.26,21.14-.14,42.29-.17,63.44C759,587.18,752.58,592.06,742.73,592Z" transform="translate(0.5 0.5)" fill="#18b086"/><path d="M723.27,452.67l-19.95.09h0l-.12-13.42-.06-4.83.32-1.83,19.19-.2c1.22.71.61,2,1,3l-.06,14.36Z" transform="translate(0.5 0.5)" fill="#7a7b7b"/><path d="M345.45,452.77l-20-.08-.19.11L325.1,448l.06-14.36.33-.87,19.82,0,.26,11.43.06,4.83-.2,3.83Z" transform="translate(0.5 0.5)" fill="#7a7b7b"/><path d="M385.83,334.57c-2-2.59-.65-4.82.84-7,6.75-9.68,16.23-16.1,26.27-21.79a260.44,260.44,0,0,1,85.61-30.15,153.87,153.87,0,0,1,43.65-.77c24.59,2.86,48,9.71,70.52,19.6,16.37,7.18,32.38,15.11,45.22,28,3.18,3.2,6,6.75,5,11.8a86.72,86.72,0,0,1-28.67,17.82l-6.62,1.28c-4.54.61-9-.58-13.51-.65-1.13-1-2.52-.79-3.86-.86a56.46,56.46,0,0,0-11.51-2.9c-.75-.95-1.83-.87-2.87-.91a59.36,59.36,0,0,0-11.42-3.44l-4-1.18c-3.78-1.2-7.49-2.64-11.5-2.93a5.71,5.71,0,0,0-3.84-1c-3.66-1.51-7.56-1.94-11.42-2.55l-4.6-.94c-4.21-.79-8.41-1.71-12.74-1.44-1.17-1-2.55-.64-3.89-.61a72,72,0,0,0-14.35,0,11.14,11.14,0,0,0-5.72.42,66.05,66.05,0,0,0-16.35,2.39c-2.3-.28-4.37.73-6.55,1.15a130.91,130.91,0,0,0-18.39,4.7l-7.56,2.08-19.3,5.6L437.55,352l-15.31,1.73c-1.51-.88-3.19-.77-4.84-.79l-9.33-3-4-2-9.64-5.9-2-1.56Z" transform="translate(0.5 0.5)" fill="#7a7b7b"/></g><g id="Layer_4" data-name="Layer 4"><circle cx="526.5" cy="492.5" r="430" fill="none"/></g><g id="Layer_5" data-name="Layer 5"><circle cx="524.5" cy="492.5" r="430" fill="none"/></g></svg>