<svg id="svglayer" xmlns="http://www.w3.org/2000/svg" xmlns:xlink="http://www.w3.org/1999/xlink" viewBox="0 0 1024 1024"><defs id="defs1"><radialGradient id="radial-gradient" cx="512" cy="511" r="512" gradientTransform="translate(-442.41 -117.08) rotate(-30) scale(1 2)" gradientUnits="userSpaceOnUse"><stop offset="0" stop-color="#fff"/><stop offset="0.07" stop-color="#ebebeb"/><stop offset="0.32" stop-color="#aeaeae"/><stop offset="0.54" stop-color="#7e7e7e"/><stop offset="0.74" stop-color="#5b5b5b"/><stop offset="0.9" stop-color="#464646"/><stop offset="1" stop-color="#3e3e3e"/></radialGradient><radialGradient id="radial1" cx="524.5" cy="490.5" r="427.5" gradientTransform="translate(1505.5 -34) rotate(90) scale(1 2)" gradientUnits="userSpaceOnUse"><stop offset="0.02" stop-color="#363636"/><stop offset="0.82" stop-color="#363636"/><stop offset="0.83" stop-color="#454545"/><stop offset="0.86" stop-color="#7d7d7d"/><stop offset="0.89" stop-color="#acacac"/><stop offset="0.92" stop-color="#d0d0d0"/><stop offset="0.95" stop-color="#eaeaea"/><stop offset="0.98" stop-color="#fafafa"/><stop offset="1" stop-color="#fff"/></radialGradient></defs><title>normal</title><g ><g id="Layer_1" data-name="Layer 1"><rect width="1024" height="1024" fill="url(#radial-gradient)"/></g><g id="Layer_2" data-name="Layer 2"><image id="img1" width="964" height="963" transform="translate(44 11)" xlink:href="normal1.png" style="mix-blend-mode:multiply"/><image id="img2" width="950" height="950" transform="translate(48 15)" xlink:href="normal2.png"/><circle id="cirl1" cx="524.5" cy="490.5" r="427.5" transform="translate(-193.52 503.22) rotate(-44.02)" fill="url(#radial-gradient-2)"/><image id="img3" width="922" height="920" transform="translate(67 35)" xlink:href="normal3.png"/><g id="Layer_2-1" data-name="Layer 2-1"><image id="img4" width="911" height="910" transform="translate(79 45)" xlink:href="normal4.png"/></g></g><g id="Layer_3" data-name="Layer 3"><path id="path1" d="M720.84,339c1.31,3.95,2.5,7.95,4.92,11.42.21,1.28,0,2.69,1.11,3.71l2.93,9.92c.26,1.34-.09,2.87,1.18,3.9l2.21,13,.9,4,1,14,.3,5.07a88.36,88.36,0,0,0-.13,14.91,1.43,1.43,0,0,0-.14.91l-20,.21-.42-13a5.15,5.15,0,0,0-.69-4c.53-5-.47-10-1.23-14.92l-.86-3.09c0-4.23-1.3-8.18-2.74-12.09a7.11,7.11,0,0,0-1.31-3.91,38.05,38.05,0,0,0-4-11l-1.7-3.05A29.51,29.51,0,0,0,697,345a10.72,10.72,0,0,0-2.81-4.27c-1.21-3-3.38-5.26-5.36-7.69l-3.75-4.21a34.6,34.6,0,0,0-7-7l-3-3-2.18-1.26c1-5.27-1.9-9-5.22-12.3-13.38-13.47-30.07-21.74-47.13-29.22-23.5-10.3-47.87-17.44-73.5-20.42a160.37,160.37,0,0,0-45.49.81,271.44,271.44,0,0,0-89.22,31.42C401.87,293.78,392,300.47,385,310.56c-1.55,2.23-3,4.55-.87,7.25a7.43,7.43,0,0,0-2.24.93C368.11,331.07,357.2,345.39,351,363a18.3,18.3,0,0,0-2.16,7c-2.86,6.38-4.06,13.17-4.85,20l-.81,6c-.75,5.28-1.62,10.55-.94,15.92l-.08,5.08-.34,3-20.66,0-.32-4.12q.14-8,.27-16c1.2-1.56.67-3.32.55-5l2.2-16.95,1-6L331,351a27,27,0,0,0,3-8,220.33,220.33,0,0,1,22.39-36.93,266.59,266.59,0,0,1,24.67-24.73,267.43,267.43,0,0,1,40-25.23,37.91,37.91,0,0,0,8.91-3.88l23-8.29a18,18,0,0,0,7-1.83c15.18-3.48,30.45-6.47,46-7.55a337.12,337.12,0,0,1,44.27,0c15.1.94,29.83,4.12,44.63,6.93L599,242.9c3.68,1,7.12,2.77,11,3.09a10,10,0,0,0,5,1.93l9.88,3.47,2.58.9c3.44,2.68,7.55,4,11.51,5.59l2.81,1.44a42.59,42.59,0,0,0,9,4.86L655,266.9c2.9,1.89,5.53,4.24,8.88,5.41L667,274.9l6.88,5.15,3.95,3.15c2.55,2.5,4.7,5.46,8.07,7l1.86,1.86L695,300l2.85,3.19L704,311l1.78,2a43,43,0,0,0,7,10.42c.17,1,.27,2,1.27,2.52a44.2,44.2,0,0,0,5.75,10.43C719.94,337.37,719.92,338.4,720.84,339Z" transform="translate(0 1)" fill="#aaa"/><path id="path2" d="M346,628l-3.92-.17Q342,534.42,342,441l0,0,13,.81,4.69.85L371,445.15l3.74,1.4L385,451.06l3,1.9,7.09,6,3.71,4.44L403,472c0,1.07-.1,2.18.8,3l.38,14.94.06,5-.06,15,.06,5-.06,15,.06,5-.06,15,.06,5-.06,15,.06,5-.06,15-1,6c-4.2,13.23-14.4,20.32-26.28,25.69L370,624l-18,3.43Z" transform="translate(0 1)" fill="#7a7b7b"/><path id="path3" d="M652.8,524l.06-15-.06-5,.06-15-.06-5a40.73,40.73,0,0,1,4.38-19,61.72,61.72,0,0,1,12.75-12.67c7.61-4.15,15.8-6.82,24.07-9.26a12.09,12.09,0,0,0,6-1L715,441h0l-.06,186.87-3.92.24c-1.68-.28-3.29-1.07-5.06-.64L694,625.84c-1.15-1-2.61-.83-4-1l-12-4L675,619.26l-7.62-4.41L663,611.11l-5.8-7.2-1.56-3.08c-1.14-3.89-2.54-7.72-2.74-11.82l-.06-5,.06-15-.06-5,.06-15-.06-5,.06-15Z" transform="translate(0 1)" fill="#7a7b7b"/><path id="path4" d="M486.8,710l.06-15,.2-5,0,0,5-.2,15-.06,5,.06,15-.06,5,.06,15-.06,5,.06,15-.06,2.93.24.23,13.95c.21,2.18-1.09,4.55.83,6.51l16-.6,5,0c5.68-.41,11.42-.31,17-1.78l5.78-.39c5.77-.73,11.59-1.1,17.19-2.84,2.38.33,4.52-.78,6.78-1.13,6.5-1.24,13-2.5,19.22-4.86l7.86-2.23c8.33-2.51,16.56-5.27,24.18-9.56,3.59-.92,6.74-2.81,9.91-4.62a113.72,113.72,0,0,0,21-13.26c13.1-10.28,24.3-22.11,30.06-38.19a14.46,14.46,0,0,0,2.2-6.91c2.23-5.83,2.66-11.92,2.63-18.08l-.15-13.59.36-6.34c10.27.08,17-5,20.85-14.28-.25,23.88,2.52,48-6,71.19a40.67,40.67,0,0,0-3.93,9c-11.1,20.24-27.65,35-47,46.94l-10.92,5.6L684,715.08l-7.91,2.38L656,723c-2.11-.25-4.05.47-6,1.08-24.5,4.74-49.25,7.87-74.18,7.35-28.24-.59-56.47-.16-84.7-.38-3.2,0-4.41-.75-4.18-4.11.27-4,0-8-.06-12Z" transform="translate(0 1)" fill="#7b7c7b"/><path id="path5" d="M342,441q0,93.43.08,186.86c-3.43.65-6.67-1.08-10.07-.79a7.15,7.15,0,0,0-3.93-1.21l-10-4.12a5.27,5.27,0,0,0-2.9-2L308,613l-1.78-2L301.87,601l-1.62-5.09-.29-9.48q0-52,0-103.91c-.33-15,5.3-27,18.38-34.88,3-1.83,2.47-4.26,2.81-6.75Z" transform="translate(0 1)" fill="#aaa"/><path id="path6" d="M756.06,586.09l-.36,6.33A91,91,0,0,1,752.11,607,46.38,46.38,0,0,1,736,623l-8,3c-4.37.52-8.61,2-13.07,1.86q0-93.43.06-186.87l20.79-.1.2,2.1c-.49,5.67,5.09,5.54,7.79,8.17l3.06,3.06L752,462a7,7,0,0,0,1.88,4l2.2,12q0,2.26,0,4.52Q756.07,534.29,756.06,586.09Z" transform="translate(0 1)" fill="#aaa"/><path id="path7" d="M300,482.54q0,52,0,103.91l-5.93-.52-4-1.66c-7.88-4.14-11.17-10.64-11.06-19.54.25-19.78.08-39.56.08-59.34C279,490.62,285.12,483.93,300,482.54Z" transform="translate(0 1)" fill="#18b086"/><path id="path8" d="M756.06,586.09q0-51.79,0-103.59l3.93.29,8.87,3.28a4.87,4.87,0,0,0,2.81,2.07c4.18,5.12,5.48,11,5.4,17.56-.27,22-.15,44.08-.18,66.12C773.05,581.08,766.33,586.17,756.06,586.09Z" transform="translate(0 1)" fill="#18b086"/><path id="path9" d="M735.78,440.89,715,441h0l-.13-14-.07-5,.34-1.91,20-.21c1.27.74.64,2.12,1.05,3.15l-.06,15Z" transform="translate(0 1)" fill="#7a7b7b"/><path id="path10" d="M342,441l-20.86-.08-.2.11-.15-5,.06-15,.35-.91,20.66,0,.28,11.91.06,5-.21,4Z" transform="translate(0 1)" fill="#7a7b7b"/><path id="path11" d="M384.09,317.81c-2.11-2.7-.68-5,.87-7.25,7-10.09,16.91-16.78,27.38-22.71a271.44,271.44,0,0,1,89.22-31.42,160.37,160.37,0,0,1,45.49-.81c25.63,3,50,10.12,73.5,20.42,17.06,7.48,33.75,15.75,47.13,29.22,3.32,3.34,6.24,7,5.22,12.3A90.39,90.39,0,0,1,643,336.14l-6.9,1.33c-4.73.63-9.38-.6-14.08-.67-1.18-1-2.63-.82-4-.9-3.94-1.25-7.85-2.61-12-3-.78-1-1.91-.9-3-.94a61.87,61.87,0,0,0-11.9-3.58L587,327.13c-3.94-1.25-7.8-2.76-12-3.06a6,6,0,0,0-4-1.09c-3.81-1.58-7.88-2-11.9-2.66l-4.79-1c-4.39-.82-8.77-1.78-13.28-1.5-1.22-1-2.66-.67-4-.64a75,75,0,0,0-15,0,11.61,11.61,0,0,0-6,.44,68.84,68.84,0,0,0-17,2.49c-2.4-.29-4.56.76-6.83,1.2a136.44,136.44,0,0,0-19.16,4.9l-7.88,2.16L445,334.23,438,336l-16,1.8c-1.58-.92-3.32-.81-5-.82l-9.72-3.16-4.13-2.1-10-6.15L391,324Z" transform="translate(0 1)" fill="#7a7b7b"/></g><g id="Layer_4" data-name="Layer 4"><circle id="lastimg" cx="526" cy="493" r="430" fill="none"/><image id="img4_1" width="950" height="950" transform= "translate(110 55)" xlink:href="active5.png" visibility="hidden" /><image id="img4_2" width="800" height="800" transform="translate(330 250) scale(0.5,0.5)"  xlink:href="active6.png" visibility="hidden"/></g><g id="Layer_5" data-name="Layer 5"><circle id="last" cx="526" cy="495" r="430" fill="#fff" opacity="0.01"/></g></g></svg>